<svg width="53" height="50" viewBox="0 0 53 50" fill="none" xmlns="http://www.w3.org/2000/svg">
<path fill-rule="evenodd" clip-rule="evenodd" d="M7.911 0L7.91452 2.15688C7.91663 3.34334 7.91663 13.5146 7.91452 24.7596C7.91241 38.2549 7.93491 45.2539 7.98132 45.348C8.05164 45.4899 8.12196 45.4906 25.5965 45.4906C35.2465 45.4906 43.1884 45.507 43.2468 45.5262C43.3375 45.5569 43.3523 45.8549 43.3523 49.6974H3.6918L3.69321 28.1108C3.69391 10.7837 3.67633 6.50629 3.60531 6.43357C3.5385 6.36583 3.11096 6.34373 0.28128 6.34444L0.156814 5.93517C0.049224 5.58008 0.0302376 5.17723 0 0.231018L0.1758 0.119074C0.329801 0.0213906 0.822744 0.00713019 7.911 0ZM30.874 0C31.6714 0 32.0779 0.0278077 32.3359 0.178255L32.3064 4.13551C32.2902 6.31164 32.3022 11.4939 32.3331 15.6508C32.3634 19.8077 32.4189 25.9361 32.4548 29.2694C32.4914 32.6028 32.523 37.3351 32.5251 39.7864C32.5272 42.2371 32.5279 44.2991 32.5258 44.3676C32.523 44.4795 32.4028 44.4966 31.3451 44.5344C30.566 44.5622 30.1019 44.5501 29.7805 44.4211L29.8262 34.3497C29.8508 28.8102 29.8459 24.0216 29.8143 23.7079C29.7665 23.2252 29.7236 23.094 29.5372 22.8522C29.4163 22.6954 29.1758 22.49 29.0035 22.3952C28.8312 22.3004 28.5323 22.1991 28.339 22.1692C28.1456 22.1392 27.7497 22.0672 27.46 22.0087C27.1695 21.9503 26.7427 21.8661 26.5106 21.8212C26.2786 21.777 25.8827 21.6943 25.6316 21.638C25.3799 21.5816 25.1113 21.5353 25.0339 21.5346C24.9566 21.5339 24.6872 21.4875 24.4362 21.4319C24.1845 21.3756 23.7098 21.2779 23.3814 21.2137C23.0523 21.1503 22.5622 21.054 22.2914 20.9998C22.0207 20.9449 21.2767 20.8002 20.6389 20.6768C20.0004 20.5542 19.0202 20.3602 18.459 20.2476C17.8978 20.1342 16.9963 19.9588 16.4549 19.8583C15.9134 19.757 15.3516 19.6437 15.2067 19.6059C14.95 19.5388 14.9444 19.5296 14.9824 19.2693C15.0042 19.1224 15.0703 18.8251 15.1293 18.6098C15.1891 18.3945 15.2855 18.0408 15.3445 17.8255C15.4043 17.6094 15.4957 17.3292 15.5492 17.2016C15.6026 17.0739 15.6462 16.9214 15.6462 16.8629C15.6462 16.8037 15.6905 16.6518 15.7446 16.5242C15.7988 16.3966 15.8979 16.1477 15.964 15.9716C16.0309 15.7948 16.1279 15.5545 16.1785 15.4369C16.2299 15.3192 16.4253 14.8857 16.6138 14.4743C16.8023 14.0622 17.2038 13.3406 17.5062 12.87C17.8085 12.3994 18.2016 11.839 18.3802 11.6243C18.5589 11.4097 18.9266 10.9969 19.1974 10.7067C19.4681 10.4165 20.006 9.93021 20.3928 9.62646C20.7796 9.322 21.2064 9.00542 21.3421 8.92343C21.4778 8.84143 21.7148 8.70524 21.8695 8.62111C22.0242 8.53697 22.1986 8.42859 22.2563 8.38011C22.3139 8.33162 22.6782 8.15479 23.065 7.98723C23.4517 7.81967 24.0368 7.58866 24.3659 7.47529C24.695 7.3612 25.138 7.21717 25.3504 7.15514C25.5627 7.09311 25.8637 7.01325 26.0184 6.97831C26.1731 6.94409 26.3995 6.89132 26.7441 6.80933L26.7835 7.558C26.8046 7.96941 26.8404 10.2154 26.8622 12.5491C26.884 14.8828 26.9312 17.0162 26.967 17.2907C27.0141 17.6529 27.0866 17.8675 27.2321 18.075C27.3418 18.2319 27.557 18.4322 27.7096 18.5192C27.8805 18.6176 28.109 18.6797 28.3038 18.6811C28.4782 18.6818 28.7306 18.6604 28.8664 18.6333C29.0239 18.6012 29.2271 18.4665 29.4324 18.2583C29.6427 18.0436 29.7826 17.8226 29.841 17.6116C29.912 17.3556 29.9148 16.6354 29.8558 14.0643C29.8143 12.2896 29.7805 9.70703 29.7798 8.32449C29.7798 6.94195 29.7418 4.53337 29.6961 2.97186C29.6511 1.40964 29.6371 0.102675 29.6652 0.0663107C29.694 0.0299468 30.2376 0 30.874 0ZM26.6323 0.366492C26.7371 0.357935 26.7589 0.449915 26.7898 1.0517C26.8102 1.43388 26.8264 2.18825 26.8264 2.7273C26.8271 3.68631 26.8236 3.70841 26.6689 3.74263C26.5817 3.76117 26.4312 3.77757 26.3348 3.779C26.2378 3.77971 26.0008 3.82677 25.8074 3.88239C25.6141 3.938 25.2498 4.0364 24.9988 4.10128C24.747 4.16617 24.3518 4.28025 24.1198 4.3544C23.8877 4.42785 23.413 4.58614 23.065 4.70592C22.7169 4.825 22.3688 4.95263 22.2914 4.98899C22.2141 5.02607 21.8182 5.2193 21.4124 5.41823C21.0067 5.61787 20.5946 5.82964 20.4983 5.88882C20.4012 5.948 20.2381 6.05068 20.1354 6.1177C20.0321 6.18401 19.7951 6.3316 19.608 6.44497C19.421 6.55834 19.127 6.76726 18.9555 6.90844C18.7839 7.05033 18.542 7.23001 18.4189 7.30844C18.2952 7.38687 17.8936 7.73982 17.5266 8.09276C17.1588 8.4457 16.5913 9.05534 16.2643 9.4475C15.938 9.83966 15.5407 10.353 15.3818 10.5883C15.2229 10.8236 14.8882 11.3527 14.6392 11.7648C14.3896 12.1762 14.0436 12.8179 13.8699 13.1908C13.6962 13.563 13.4128 14.2368 13.2399 14.6882C13.0669 15.1388 12.8538 15.7164 12.7659 15.9716C12.6787 16.2262 12.576 16.547 12.5381 16.6846C12.5001 16.8215 12.4277 17.0946 12.3777 17.2907C12.3271 17.4868 12.2364 17.8397 12.1752 18.075C12.1147 18.3103 12.0128 18.7595 11.9502 19.0732C11.8876 19.387 11.7913 19.844 11.7371 20.0893C11.6823 20.3346 11.638 20.6469 11.638 20.7845C11.638 20.9214 11.7125 21.1866 11.8039 21.3727C11.8953 21.5588 12.0613 21.7927 12.1731 21.8925C12.2849 21.9916 12.55 22.125 12.7631 22.1877C12.9754 22.2512 13.3397 22.3417 13.5718 22.3888C13.8038 22.4366 14.1357 22.5 14.3101 22.53C14.4838 22.5599 15.1329 22.6847 15.7517 22.8066C16.3705 22.9292 17.0983 23.0747 17.369 23.1303C17.6398 23.1852 18.1144 23.2808 18.4238 23.3428C18.7332 23.4041 19.2712 23.5054 19.6193 23.5681C19.9674 23.6301 20.4575 23.725 20.7092 23.7785C20.9603 23.8319 21.4349 23.9275 21.764 23.9916C22.0924 24.0551 22.5038 24.1357 22.6782 24.1699C22.8526 24.2048 23.1212 24.2526 23.2759 24.2769C23.4306 24.3004 23.7625 24.3646 24.0143 24.4187C24.2653 24.4729 24.74 24.5713 25.0691 24.6369C25.3975 24.7025 25.92 24.8116 26.7919 25.0048L26.8102 31.2723C26.82 34.7197 26.8123 37.5804 26.7926 37.6296C26.7652 37.6966 26.614 37.673 26.1766 37.534C25.8574 37.432 25.2962 37.2331 24.9284 37.0912C24.5607 36.9493 23.8174 36.6064 23.2759 36.3297C22.7345 36.0524 21.9434 35.5889 21.5179 35.3001C21.0925 35.0106 20.4912 34.5586 20.1818 34.2955C19.8724 34.0324 19.2789 33.4598 18.8633 33.0227C18.4478 32.5857 17.8444 31.8677 17.5237 31.4263C17.2024 30.9849 16.7861 30.3675 16.5976 30.0537C16.4099 29.74 16.0843 29.1461 15.8747 28.7346C15.6652 28.3225 15.3734 27.6972 15.2257 27.3443C15.0787 26.9913 14.9064 26.5421 14.8431 26.346C14.7806 26.15 14.7032 25.9254 14.673 25.8469C14.642 25.7685 14.5239 25.5125 14.4107 25.2779C14.2658 24.9785 14.1132 24.7874 13.8987 24.6362C13.6815 24.4836 13.4867 24.4123 13.2307 24.3924C12.9951 24.3738 12.7582 24.4066 12.5521 24.4872C12.3777 24.5549 12.1611 24.6804 12.0704 24.7653C11.9797 24.8501 11.8454 25.0405 11.7716 25.1874C11.6858 25.3585 11.638 25.6024 11.6387 25.8647C11.6387 26.1435 11.7181 26.515 11.8862 27.0234C12.0226 27.4348 12.1689 27.8519 12.2125 27.9503C12.2554 28.048 12.332 28.2248 12.3834 28.3425C12.434 28.4601 12.5929 28.8288 12.7364 29.1625C12.8798 29.4954 13.14 30.0409 13.3144 30.3746C13.4888 30.7076 13.6815 31.0655 13.7419 31.1689C13.8031 31.2723 13.9782 31.5611 14.1315 31.8106C14.2848 32.0602 14.5689 32.4887 14.763 32.7632C14.9571 33.0377 15.4535 33.6794 15.8656 34.1892C16.2784 34.699 16.926 35.4049 17.3043 35.7579C17.6834 36.1108 18.2797 36.6342 18.6306 36.9215C18.9808 37.2089 19.5679 37.646 19.9357 37.8934C20.3035 38.1408 20.8886 38.5016 21.2366 38.6948C21.5847 38.888 22.0756 39.1447 22.3266 39.2652C22.5776 39.3857 23.0523 39.5975 23.3814 39.7358C23.7105 39.8741 24.2161 40.0667 24.5065 40.1643C24.7962 40.262 25.3581 40.4417 25.7547 40.5629C26.4727 40.784 26.4755 40.7854 26.4825 41.0164C26.4867 41.144 26.4945 41.8692 26.5001 42.6278C26.5057 43.3865 26.4945 44.0346 26.4755 44.0688C26.4558 44.1031 26.2863 44.1016 26.0887 44.0645C25.8953 44.0282 25.5473 43.9505 25.3152 43.8913C25.0831 43.8328 24.7189 43.738 24.5065 43.6817C24.2942 43.6253 24.0094 43.5412 23.8736 43.4948C23.7379 43.4485 23.5642 43.3829 23.4869 43.348C23.4095 43.313 23.1402 43.2139 22.8892 43.1284C22.6381 43.0428 22.0678 42.8061 21.6234 42.6029C21.179 42.3996 20.6565 42.1444 20.4631 42.0353C20.2697 41.9262 19.9055 41.7244 19.6544 41.5868C19.4034 41.4492 18.8331 41.0934 18.3887 40.7961C17.9443 40.4987 17.2474 39.9854 16.8416 39.6552C16.4352 39.3251 15.6975 38.6506 15.2011 38.155C14.7053 37.6602 14.0563 36.9664 13.7588 36.6135C13.4621 36.2606 13.0746 35.7793 12.8981 35.544C12.7223 35.3087 12.3067 34.6826 11.9755 34.1536C11.645 33.6238 11.176 32.7896 10.9341 32.2997C10.6929 31.8092 10.3441 31.0234 10.1591 30.5528C9.97419 30.0823 9.75409 29.4883 9.67041 29.2338C9.58673 28.9785 9.47 28.5935 9.41233 28.3781C9.35397 28.1621 9.24497 27.745 9.16973 27.4512C9.09449 27.1567 9.00166 26.7396 8.96369 26.5243C8.92572 26.3082 8.82938 25.6829 8.74992 25.1339C8.63459 24.3368 8.60506 23.7699 8.60295 22.3175C8.60084 20.8708 8.62967 20.2804 8.74359 19.4298C8.82305 18.8415 8.92009 18.2155 8.96017 18.0394C9.00026 17.8625 9.0973 17.4454 9.17535 17.1124C9.25341 16.7788 9.38139 16.2739 9.45804 15.9894C9.53539 15.7049 9.7133 15.1595 9.85324 14.7773C9.99318 14.3951 10.1514 13.978 10.2048 13.8504C10.2583 13.7228 10.3019 13.6023 10.3019 13.583C10.3019 13.563 10.4756 13.1866 10.6886 12.7452C10.901 12.3038 11.1204 11.8625 11.176 11.7648C11.2315 11.6664 11.439 11.2978 11.638 10.9448C11.8363 10.5919 12.0205 10.2653 12.0472 10.2183C12.0732 10.1719 12.3299 9.80258 12.6175 9.3983C12.9051 8.99402 13.3615 8.39009 13.6322 8.05711C13.903 7.72342 14.5464 7.02608 15.0611 6.50629C15.5766 5.9865 16.3065 5.3127 16.6834 5.00753C17.0603 4.70307 17.5751 4.30521 17.8261 4.12267C18.0772 3.94014 18.6313 3.57508 19.0567 3.31055C19.4822 3.0453 20.1945 2.64102 20.6389 2.41072C21.0833 2.18041 21.5896 1.94012 21.764 1.87524C21.9384 1.81107 22.1121 1.73477 22.1508 1.70697C22.1895 1.67916 22.4272 1.57506 22.6782 1.47666C22.9292 1.37826 23.4039 1.21356 23.733 1.11017C24.0621 1.0075 24.4257 0.893412 24.5417 0.857761C24.6577 0.821397 25.0691 0.712306 25.4558 0.615335C25.8426 0.518364 26.2378 0.424246 26.3348 0.407134C26.4312 0.390021 26.5655 0.371483 26.6323 0.366492ZM35.3745 0.499113C35.3921 0.499113 35.667 0.564711 35.9863 0.644569C36.3055 0.724427 36.93 0.905534 37.3751 1.04671C37.8202 1.18789 38.5164 1.43887 38.9221 1.60358C39.3279 1.769 40.0719 2.11196 40.5746 2.3658C41.0774 2.62034 41.8214 3.03175 42.2272 3.27989C42.6329 3.52873 43.2503 3.94085 43.5984 4.19683C43.9465 4.45209 44.5006 4.88489 44.829 5.15869C45.1574 5.43178 45.8852 6.12412 46.4464 6.69667C47.087 7.35051 47.7536 8.12699 48.2395 8.78225C48.665 9.35694 49.217 10.1584 49.4659 10.5641C49.7148 10.9698 50.11 11.6885 50.3449 12.1612C50.5791 12.6347 50.809 13.116 50.8561 13.2308C50.9025 13.3463 51.0017 13.5844 51.0748 13.7613C51.1487 13.9374 51.2337 14.1463 51.264 14.2247C51.2942 14.3032 51.4103 14.624 51.5221 14.9377C51.6339 15.2515 51.7738 15.6843 51.8343 15.9003C51.8941 16.1156 51.9883 16.4529 52.0431 16.649C52.0987 16.8451 52.176 17.1816 52.2154 17.3977C52.2555 17.613 52.3005 17.8055 52.316 17.8255C52.3314 17.8447 52.3961 18.182 52.4594 18.5741C52.5234 18.9663 52.619 19.7684 52.6725 20.3567C52.7252 20.9449 52.7702 21.7307 52.7716 22.1036C52.7731 22.4758 52.7273 23.3421 52.6704 24.0287C52.6134 24.7146 52.522 25.5653 52.4679 25.9182C52.4137 26.2712 52.335 26.6883 52.2935 26.8451C52.2513 27.002 52.1669 27.355 52.105 27.6295C52.0431 27.904 51.9503 28.2569 51.8983 28.4138C51.8462 28.5707 51.7351 28.9236 51.6515 29.1981C51.5678 29.4726 51.4201 29.9054 51.3238 30.1607C51.2267 30.4152 51.1198 30.6883 51.0861 30.7668C51.0523 30.8452 50.9574 31.0698 50.8751 31.2659C50.7928 31.4619 50.6058 31.8627 50.4602 32.1571C50.3147 32.4509 50.0749 32.9165 49.9272 33.191C49.7795 33.4655 49.4518 34.011 49.198 34.4031C48.9448 34.7953 48.5946 35.3087 48.4217 35.544C48.248 35.7793 47.9618 36.1479 47.786 36.3639C47.6102 36.5793 47.4477 36.7718 47.4259 36.7918C47.4034 36.811 47.1636 37.0841 46.8929 37.3978C46.6229 37.7116 46.0237 38.3069 45.5624 38.7205C45.1011 39.134 44.4542 39.683 44.1258 39.939C43.7974 40.1957 43.2116 40.6135 42.8249 40.8674C42.4381 41.1219 41.9163 41.452 41.6646 41.6004C41.4129 41.7494 40.7645 42.0873 40.223 42.3512C39.6816 42.615 38.9538 42.9358 38.6057 43.0635C38.2576 43.1904 37.9095 43.3209 37.8322 43.353C37.7548 43.385 37.5333 43.4606 37.3399 43.5212C37.1465 43.5818 36.8139 43.6802 36.6016 43.7394C36.3892 43.7986 36.1515 43.8563 36.0742 43.867C35.9377 43.8856 35.9328 43.8392 35.9117 42.3533C35.8948 41.1569 35.9103 40.8032 35.982 40.7419C36.0327 40.6991 36.5172 40.5287 37.0586 40.364C37.6001 40.1993 38.1697 40.006 38.3244 39.934C38.4791 39.862 38.811 39.7173 39.0628 39.6132C39.3145 39.5084 39.6619 39.3529 39.8363 39.2681C40.0107 39.1825 40.3109 39.0185 40.5043 38.903C40.6977 38.7882 41.2511 38.4288 41.7349 38.1044C42.218 37.78 42.9142 37.2524 43.282 36.9315C43.6497 36.6114 44.1195 36.1836 44.3269 35.9818C44.5337 35.78 44.945 35.3215 45.2411 34.9614C45.5364 34.6021 45.8775 34.185 45.9977 34.0345C46.1187 33.8848 46.4217 33.4242 46.6714 33.0128C46.921 32.6006 47.2016 32.1357 47.2958 31.9789C47.3894 31.822 47.5187 31.581 47.5834 31.4441C47.6474 31.3065 47.8274 30.9215 47.9829 30.5885C48.1383 30.2548 48.3457 29.7414 48.4435 29.4477C48.5412 29.1532 48.7015 28.6719 48.8 28.3781C48.8984 28.0837 48.9786 27.7792 48.9786 27.7008C48.9786 27.6223 49.0229 27.4298 49.077 27.273C49.1305 27.1161 49.224 26.7468 49.2838 26.453C49.3435 26.1585 49.4272 25.7093 49.4687 25.4548C49.5102 25.1995 49.5735 24.5421 49.6094 23.9931C49.6452 23.444 49.6902 22.8822 49.7099 22.7453C49.7289 22.6077 49.7008 21.854 49.6473 21.0697C49.5939 20.2854 49.5144 19.4347 49.4715 19.1802C49.4286 18.9249 49.345 18.4757 49.2859 18.182C49.2268 17.8875 49.1312 17.4547 49.0735 17.2194C49.0159 16.9841 48.9047 16.567 48.8274 16.2925C48.75 16.018 48.6572 15.737 48.6214 15.6686C48.5855 15.6001 48.556 15.5117 48.556 15.4725C48.556 15.4333 48.506 15.2807 48.4456 15.1338C48.3844 14.9869 48.2916 14.7702 48.2395 14.6525C48.1868 14.5349 48.0468 14.2219 47.928 13.9573C47.8092 13.6928 47.7121 13.4597 47.7121 13.4404C47.7121 13.4204 47.5462 13.1145 47.3429 12.7595C47.1397 12.4051 46.9154 12.0122 46.8437 11.886C46.7719 11.7605 46.5504 11.4233 46.3514 11.1359C46.1524 10.8493 45.8029 10.368 45.5744 10.0664C45.3466 9.7655 44.7453 9.10097 44.2383 8.58974C43.732 8.07921 43.0717 7.46958 42.7714 7.235C42.4712 7.00113 41.9649 6.62323 41.6463 6.39649C41.3278 6.16904 41.0198 5.96226 40.9614 5.93731C40.903 5.91164 40.6344 5.75549 40.3637 5.58935C40.0929 5.42393 39.4917 5.11234 39.0276 4.89701C38.5635 4.68168 37.804 4.37722 37.3399 4.22107C36.8758 4.06421 36.2746 3.8831 36.0038 3.81821C35.7331 3.75262 35.4638 3.67062 35.4061 3.63497C35.3196 3.58149 35.2985 3.34691 35.288 2.33727C35.2803 1.65991 35.2901 0.968992 35.3091 0.802146C35.3281 0.6353 35.3576 0.499113 35.3745 0.499113ZM35.5327 6.98901C35.5981 6.98972 35.9687 7.10594 36.3554 7.24712C36.7422 7.38759 37.1775 7.5473 37.3223 7.6022C37.4672 7.65639 37.9264 7.88028 38.342 8.09989C38.7576 8.3195 39.145 8.54339 39.2034 8.59758C39.2618 8.65105 39.3328 8.69597 39.3616 8.69669C39.3905 8.69811 39.5409 8.79508 39.6956 8.91273C39.8503 9.03038 40.0008 9.12735 40.0297 9.12878C40.0585 9.12949 40.3194 9.32414 40.6098 9.56015C40.8995 9.79616 41.4501 10.2853 41.8327 10.6454C42.2152 11.0062 42.7848 11.6315 43.0984 12.0358C43.4121 12.4393 43.8818 13.1131 44.1427 13.5331C44.4029 13.9523 44.7095 14.4885 44.8234 14.7238C44.9373 14.9591 45.1011 15.3121 45.1876 15.5082C45.2748 15.7042 45.388 15.9766 45.4401 16.1142C45.4921 16.2511 45.6447 16.6925 45.7797 17.0946C45.914 17.4968 46.0251 17.8818 46.0251 17.9502C46.0258 18.0187 46.0723 18.2354 46.1285 18.4315C46.1848 18.6276 46.2769 19.0447 46.3339 19.3585C46.3908 19.6722 46.4766 20.4579 46.5251 21.1053C46.5961 22.0487 46.5961 22.5221 46.5258 23.494C46.4773 24.1606 46.4084 24.818 46.3732 24.9556C46.3381 25.0925 46.2783 25.3977 46.2403 25.633C46.2024 25.8683 46.1236 26.2533 46.0659 26.4886C46.0076 26.7239 45.9014 27.1247 45.8297 27.3799C45.7572 27.6345 45.6096 28.068 45.5006 28.3425C45.3923 28.617 45.1806 29.1061 45.0308 29.4298C44.881 29.7536 44.7587 30.0338 44.7587 30.0537C44.7587 30.073 44.5632 30.4181 44.3234 30.8202C44.0843 31.2224 43.6497 31.8719 43.3572 32.2641C43.0647 32.6562 42.4452 33.3557 41.981 33.8185C41.5169 34.2812 40.8679 34.8538 40.5395 35.0912C40.2111 35.3286 39.6091 35.7215 39.2034 35.9639C38.7977 36.2071 38.0853 36.5686 37.6212 36.7675C37.1571 36.9664 36.6191 37.1811 36.4258 37.2431C36.2324 37.3058 35.9792 37.3665 35.6522 37.3978L35.6086 33.5119C35.584 31.3742 35.5418 26.3532 35.5137 22.3531C35.4856 18.3531 35.4399 13.2835 35.4117 11.0874C35.3836 8.89134 35.3724 7.07029 35.3871 7.04106C35.4012 7.01182 35.4666 6.98829 35.5327 6.98901ZM45.4267 45.5262L45.4436 47.594C45.4534 48.7313 45.4373 49.6824 45.4084 49.7074C45.3796 49.7323 45.1743 49.7402 44.5477 49.6974L44.5337 47.6353C44.5217 45.8899 44.5351 45.5683 44.6216 45.5362C44.6778 45.5155 44.8817 45.5048 45.4267 45.5262ZM47.1285 45.4906C47.2944 45.4906 47.478 45.5063 47.5363 45.5262C47.6263 45.5569 47.6418 45.8428 47.6418 47.5227C47.6418 48.6008 47.6256 49.5313 47.6066 49.5904C47.5806 49.6696 47.4618 49.6974 47.1496 49.6974C46.8373 49.6974 46.7185 49.6696 46.6925 49.5904C46.6735 49.5313 46.651 48.6236 46.6433 47.5726C46.632 46.0097 46.6475 45.646 46.7276 45.5761C46.7818 45.5291 46.9625 45.4906 47.1285 45.4906ZM49.2767 45.492C49.4216 45.4913 49.5876 45.5063 49.6459 45.5262C49.7366 45.5569 49.7514 45.8549 49.7514 49.6974L48.8724 49.6617L48.8422 47.6346C48.8176 45.9312 48.8288 45.5983 48.9125 45.5498C48.968 45.5184 49.1319 45.492 49.2767 45.492ZM51.8863 45.4892C52.4264 45.4884 52.6971 45.5163 52.759 45.5783C52.8265 45.6474 52.8476 46.1516 52.8455 49.6974L50.982 49.6617L50.9518 47.6738C50.9279 46.1109 50.9405 45.6653 51.0122 45.5883C51.0783 45.517 51.3153 45.4906 51.8863 45.4892Z" fill="white"/>
</svg>
